<svg width="56" height="57" viewBox="0 0 56 57" fill="none" xmlns="http://www.w3.org/2000/svg">
<circle cx="28" cy="28.6504" r="28" fill="#E0355E"/>
<path d="M40.9779 18.5057H35.1947V17.0078C35.1947 15.7823 34.7751 14.7497 33.936 13.91C33.0969 13.0702 32.0649 12.6504 30.8403 12.6504H24.989C23.7643 12.6504 22.7324 13.0702 21.8933 13.91C21.0542 14.7497 20.6346 15.7823 20.6346 17.0078V18.5057H14.8514C13.6267 18.5057 12.5948 18.9142 11.7556 19.7312C10.9165 20.5483 10.4969 21.5922 10.4969 22.8632V28.6504C10.4969 29.6036 10.9732 30.0802 11.9257 30.0802V41.7227C11.9257 42.4944 12.2206 43.1752 12.8102 43.7653C13.3999 44.3554 14.0803 44.6504 14.8514 44.6504H40.9779C41.749 44.6504 42.4294 44.3554 43.019 43.7653C43.6087 43.1752 43.9035 42.4944 43.9035 41.7227V30.0802C44.8561 30.0802 45.3323 29.6036 45.3323 28.6504V22.8632C45.3323 21.5922 44.9128 20.5483 44.0736 19.7312C43.2345 18.9142 42.2026 18.5057 40.9779 18.5057ZM23.5602 17.0078C23.5602 16.5993 23.6963 16.2589 23.9684 15.9866C24.2406 15.7142 24.5808 15.5781 24.989 15.5781H30.8403C31.2485 15.5781 31.5887 15.7142 31.8608 15.9866C32.133 16.2589 32.2691 16.5993 32.2691 17.0078V18.5057H23.5602V17.0078ZM14.8514 41.7227V30.0802H23.5602V34.4376C23.5602 35.2546 23.8437 35.9468 24.4107 36.5142C24.9777 37.0816 25.6694 37.3653 26.4858 37.3653H29.3434C30.1599 37.3653 30.8516 37.0816 31.4186 36.5142C31.9856 35.9468 32.2691 35.2546 32.2691 34.4376V30.0802H40.9779V41.7227H14.8514ZM26.4858 34.4376V30.0802H29.3434V34.4376H26.4858ZM42.4067 27.2206H13.4226V22.8632C13.4226 21.8646 13.8988 21.3653 14.8514 21.3653H40.9779C41.9304 21.3653 42.4067 21.8646 42.4067 22.8632V27.2206Z" fill="white"/>
</svg>
